<?xml version="1.0" encoding="utf-8"?>
<!-- Generator: Adobe Illustrator 16.0.0, SVG Export Plug-In . SVG Version: 6.00 Build 0)  -->
<!DOCTYPE svg PUBLIC "-//W3C//DTD SVG 1.1//EN" "http://www.w3.org/Graphics/SVG/1.1/DTD/svg11.dtd">
<svg version="1.1" id="Capa_1" xmlns="http://www.w3.org/2000/svg" xmlns:xlink="http://www.w3.org/1999/xlink" x="0px" y="0px"
	 width="24.719px" height="22.021px" viewBox="0 0 24.719 22.021" enable-background="new 0 0 24.719 22.021" xml:space="preserve">
<g>
	<g>
		<g>
			<path fill="#454647" d="M10.656,21.316C4.781,21.316,0,16.533,0,10.658C0,4.78,4.781,0,10.656,0
				c5.877,0,10.658,4.78,10.658,10.658C21.314,16.533,16.533,21.316,10.656,21.316L10.656,21.316z M10.656,1.594
				c-4.997,0-9.063,4.066-9.063,9.063c0,4.998,4.066,9.063,9.063,9.063c4.999,0,9.064-4.064,9.064-9.063
				C19.721,5.66,15.655,1.594,10.656,1.594L10.656,1.594z"/>
			<path fill="#454647" d="M10.656,17.529c-3.787,0-6.869-3.084-6.869-6.871c0-3.789,3.082-6.87,6.869-6.87
				c3.789,0,6.871,3.081,6.871,6.87C17.527,14.445,14.445,17.529,10.656,17.529L10.656,17.529z M10.656,4.926
				c-3.16,0-5.732,2.57-5.732,5.732c0,3.162,2.572,5.73,5.732,5.73c3.161,0,5.732-2.568,5.732-5.73
				C16.389,7.496,13.817,4.926,10.656,4.926L10.656,4.926z"/>
			<circle fill="#454647" cx="10.657" cy="10.658" r="2.853"/>
		</g>
		<g>
			<polygon fill="#454647" points="21.362,14.373 11.332,11.496 16.923,20.453 18.289,18.58 23.003,22.021 24.719,19.673 
				20.005,16.232 			"/>
		</g>
	</g>
</g>
</svg>
