<?xml version="1.0" encoding="utf-8"?>
<!-- Generator: Adobe Illustrator 16.0.0, SVG Export Plug-In . SVG Version: 6.00 Build 0)  -->
<!DOCTYPE svg PUBLIC "-//W3C//DTD SVG 1.1//EN" "http://www.w3.org/Graphics/SVG/1.1/DTD/svg11.dtd">
<svg version="1.1" id="Capa_1" xmlns="http://www.w3.org/2000/svg" xmlns:xlink="http://www.w3.org/1999/xlink" x="0px" y="0px"
	 width="68.373px" height="62.002px" viewBox="0 0 68.373 62.002" enable-background="new 0 0 68.373 62.002" xml:space="preserve">
<g>
	<path fill="#FFFFFF" d="M67.307,49.354l-8.34-4.487l0.256-0.479l-0.375-0.2c-1.602,1.815-3.787,3.046-6.187,3.477
		c-2.413,0.432-4.832,0.047-6.997-1.118c-5.238-2.819-7.205-9.372-4.387-14.611c0.561-1.044,1.283-1.965,2.12-2.753L15.782,40.436
		l-1.989-4.875l38.989-15.885l1.981,4.874l-4.2,1.712c1.848-0.041,3.662,0.392,5.325,1.286c4.401,2.369,6.594,7.502,5.296,12.303
		l0.373,0.2l0.258-0.478l4.912,2.642L59.156,0L39.761,3.479L6.35,17.093l-1.989-4.875l10.488-4.271L0,10.61l0.481,2.684l2.213,5.479
		l-1.146,0.468h0l7.669,42.761l11.342-2.034l25.423-10.313l1.979,4.875l-2.318,0.94l22.73-4.077l-0.32-1.783
		C67.793,49.562,67.541,49.479,67.307,49.354z M48.014,7.966l1.982,4.875L11.014,28.726L9.025,23.85L48.014,7.966z M4.921,31.209
		L2.932,26.33l2.438-0.988l1.987,4.871L4.921,31.209z M9.688,42.92l-1.989-4.877l2.438-0.992l1.987,4.871L9.688,42.92z
		 M14.545,54.432l-1.987-4.879l2.436-0.989l1.989,4.871L14.545,54.432z M20.639,51.948l-1.99-4.876l19.489-7.94l1.981,4.875
		L20.639,51.948z"/>
	<path fill="#FFFFFF" d="M47.326,43.457c1.462,0.785,3.098,1.048,4.729,0.755c2.202-0.395,4.074-1.75,5.131-3.718
		c1.901-3.532,0.573-7.956-2.961-9.858c-1.461-0.787-3.098-1.049-4.729-0.757c-2.203,0.396-4.072,1.75-5.131,3.716
		C42.463,37.133,43.791,41.556,47.326,43.457z"/>
</g>
</svg>
