<?xml version="1.0" encoding="utf-8"?>
<!-- Generator: Adobe Illustrator 16.0.0, SVG Export Plug-In . SVG Version: 6.00 Build 0)  -->
<!DOCTYPE svg PUBLIC "-//W3C//DTD SVG 1.1//EN" "http://www.w3.org/Graphics/SVG/1.1/DTD/svg11.dtd">
<svg version="1.1" id="Capa_1" xmlns="http://www.w3.org/2000/svg" xmlns:xlink="http://www.w3.org/1999/xlink" x="0px" y="0px"
	 width="65.535px" height="61.611px" viewBox="0 0 65.535 61.611" enable-background="new 0 0 65.535 61.611" xml:space="preserve">
<g>
	<polygon fill="#FFFFFF" points="62.552,46.359 38.624,56.463 65.535,51.785 56.536,0 45.293,1.953 	"/>
	<path fill="#FFFFFF" d="M58.623,44.645L41.75,2.569l-7.07,1.229l0.992,2.476L6.543,17.96l-1.464-3.643l23.648-9.485L0,9.823
		l1.061,6.106l1.287-0.513l1.463,3.637l-1.823,0.729l-0.454-1.131L9,61.611l13.053-2.269L58.623,44.645z M46.187,32.174
		L17.056,43.859l-1.463-3.643L44.73,28.53L46.187,32.174z M42.61,23.569L13.481,35.258l-1.462-3.645l29.132-11.686L42.61,23.569z
		 M37.644,11.177l1.459,3.642L9.973,26.506l-1.462-3.642L37.644,11.177z M5.421,28.334L3.958,24.69l1.821-0.729L7.242,27.6
		L5.421,28.334z M8.929,37.084L7.466,33.44l1.821-0.729l1.462,3.64L8.929,37.084z M12.504,45.688l-1.462-3.646l1.821-0.728
		l1.462,3.64L12.504,45.688z M15.866,54.38l-1.46-3.644l1.822-0.729l1.459,3.638L15.866,54.38z M48.093,37.224l1.455,3.641
		L20.416,52.552l-1.456-3.64L48.093,37.224z"/>
</g>
</svg>
