<?xml version="1.0" encoding="utf-8"?>
<!-- Generator: Adobe Illustrator 16.0.0, SVG Export Plug-In . SVG Version: 6.00 Build 0)  -->
<!DOCTYPE svg PUBLIC "-//W3C//DTD SVG 1.1//EN" "http://www.w3.org/Graphics/SVG/1.1/DTD/svg11.dtd">
<svg version="1.1" id="Capa_1" xmlns="http://www.w3.org/2000/svg" xmlns:xlink="http://www.w3.org/1999/xlink" x="0px" y="0px"
	 width="71.735px" height="67.216px" viewBox="0 0 71.735 67.216" enable-background="new 0 0 71.735 67.216" xml:space="preserve">
<path fill="#FFFFFF" d="M25.618,63.524l42.221-17.571l2.189,5.28l-21.103,8.781l22.81-4.267L61.308,0L44.061,3.226L6.951,18.671
	l-2.2-5.278l12.281-5.11L0,11.468l0.679,3.625l0.115-0.048l2.198,5.271l-1.24,0.516l8.676,46.385l15.518-2.902L25.618,63.524z
	 M41.632,54.857l-0.468-2.202l2.028,0.773L41.632,54.857z M44.382,52.339l-3.571-1.355l-1.806-8.563l11.453,4.355L44.382,52.339z
	 M50.9,45.584L39.423,41.31l8.59-23.071l11.479,4.276L50.9,45.584z M17.384,43.738l-2.199-5.28l27.863-12.21l-2.334,7.299
	L17.384,43.738z M52.13,8.209l2.192,5.277l-1.327,0.552c0.393,0.033,0.785,0.1,1.172,0.244l3.256,1.21
	c2.272,0.849,3.427,3.373,2.581,5.643l-11.481-4.272c0.181-0.484,0.45-0.906,0.766-1.28L12.109,31.057l-2.199-5.28L52.13,8.209z
	 M5.513,33.804l-2.199-5.281l2.638-1.095l2.199,5.274L5.513,33.804z M10.785,46.486l-2.199-5.282l2.64-1.096l2.199,5.274
	L10.785,46.486z M16.155,58.951l-2.199-5.285l2.639-1.093l2.2,5.273L16.155,58.951z M20.553,50.924l17.15-7.509l1.064,5.691
	l-16.015,7.097L20.553,50.924z"/>
</svg>
