<?xml version="1.0" encoding="utf-8"?>
<!-- Generator: Adobe Illustrator 16.0.0, SVG Export Plug-In . SVG Version: 6.00 Build 0)  -->
<!DOCTYPE svg PUBLIC "-//W3C//DTD SVG 1.1//EN" "http://www.w3.org/Graphics/SVG/1.1/DTD/svg11.dtd">
<svg version="1.1" id="Capa_1" xmlns="http://www.w3.org/2000/svg" xmlns:xlink="http://www.w3.org/1999/xlink" x="0px" y="0px"
	 width="63.684px" height="61.285px" viewBox="0 0 63.684 61.285" enable-background="new 0 0 63.684 61.285" xml:space="preserve">
<g>
	<path fill="#FFFFFF" d="M55.199,47.053L39.425,2.113L0,6.799l6.476,54.486l8.69-1.033L55.199,47.053z M10.33,28.395l23.425-7.723
		c0.281-0.092,0.57-0.11,0.846-0.063l1.091-2.044c0.553-1.033,1.596-1.736,2.798-1.879c0.702-0.083,1.407,0.033,2.039,0.337
		c1.766,0.849,2.464,2.914,1.563,4.609l-3.739,7.013l5.384,15.341c0.296,0.844,0.475,1.583,0.475,1.583l-24.981,8.205
		c-0.11,0.039-0.231,0.064-0.353,0.078l-1.193,0.463l-0.604-1.544L9.252,30.457c-0.145-0.41-0.441-1.496-0.441-1.496
		S9.9,28.535,10.33,28.395z"/>
	<path fill="#FFFFFF" d="M15.114,33.058c0.599-0.702,1.441-1.148,2.376-1.261c0.975-0.115,1.928,0.143,2.686,0.729l5.72,4.417
		l6.63-12.444l-19.509,6.435l1.322,3.778C14.439,34.111,14.702,33.543,15.114,33.058z"/>
	<path fill="#FFFFFF" d="M30.261,43.821c-0.42,0.799-1.172,1.423-2.058,1.715c-0.132,0.047-0.278,0.082-0.421,0.11
		c-0.099,0.022-0.21,0.039-0.317,0.051c-0.957,0.114-1.937-0.148-2.682-0.723l-9.168-7.088c-0.081-0.063-0.156-0.124-0.228-0.193
		l4.379,12.484l20.206-6.664l-3.791-10.801L30.261,43.821z"/>
	<polygon fill="#FFFFFF" points="59.375,49.04 33.521,58.07 63.684,54.485 57.207,0 43.344,1.647 	"/>
</g>
</svg>
